<svg width="206" height="206" viewBox="0 0 206 206" fill="none" xmlns="http://www.w3.org/2000/svg">
<path d="M141.625 188.833H64.375C57.5457 188.833 50.9961 186.12 46.167 181.291C41.3379 176.462 38.625 169.913 38.625 163.083V42.9165C38.625 36.0872 41.3379 29.5376 46.167 24.7085C50.9961 19.8794 57.5457 17.1665 64.375 17.1665H120.939C123.191 17.176 125.349 18.0699 126.947 19.6557L164.886 57.594C166.472 59.1927 167.366 61.3506 167.375 63.6023V163.083C167.375 169.913 164.662 176.462 159.833 181.291C155.004 186.12 148.454 188.833 141.625 188.833Z" fill="#9A6C74"/>
<path d="M161.367 66.435H130.467C127.052 66.435 123.777 65.0786 121.363 62.664C118.948 60.2495 117.592 56.9747 117.592 53.56V22.66C117.588 21.7236 117.863 20.8072 118.381 20.0275C118.9 19.2477 119.638 18.6397 120.503 18.2808C121.368 17.922 122.32 17.8284 123.239 18.0122C124.157 18.1959 125 18.6485 125.66 19.3125L164.714 58.3667C165.378 59.027 165.831 59.8698 166.015 60.7881C166.198 61.7063 166.105 62.6584 165.746 63.5234C165.387 64.3883 164.779 65.127 163.999 65.6454C163.22 66.1639 162.303 66.4388 161.367 66.435Z" fill="#D0919A"/>
<path d="M102.197 132.27C101.648 132.324 101.094 132.269 100.566 132.108C100.038 131.946 99.5477 131.682 99.1224 131.331C98.7345 130.995 98.4317 130.573 98.2387 130.098C98.0457 129.623 97.968 129.108 98.012 128.598C97.9748 128.1 98.0561 127.6 98.2491 127.14C98.4421 126.68 98.7414 126.272 99.1224 125.95C99.9979 125.271 101.092 124.936 102.197 125.01C105.016 125.01 106.468 126.206 106.468 128.598C106.493 129.106 106.407 129.615 106.215 130.087C106.023 130.559 105.731 130.983 105.358 131.331C104.46 132.03 103.332 132.366 102.197 132.27ZM102.197 157.127C101.683 157.153 101.168 157.077 100.684 156.9C100.2 156.724 99.7558 156.453 99.3786 156.102C98.7135 155.219 98.3808 154.13 98.4391 153.027V139.531C98.3654 138.425 98.6997 137.331 99.3786 136.456C100.14 135.735 101.149 135.333 102.197 135.333C103.246 135.333 104.255 135.735 105.016 136.456C105.383 136.875 105.662 137.362 105.838 137.89C106.014 138.418 106.083 138.976 106.041 139.531V153.027C106.099 154.13 105.767 155.219 105.102 156.102C104.714 156.464 104.256 156.741 103.757 156.918C103.257 157.094 102.726 157.165 102.197 157.127Z" fill="#F2E0EE"/>
<path d="M120.722 162.354C118.184 162.354 117 161.001 117 158.464V136.895C117 134.357 118.184 133.089 120.637 133.089C121.09 133.03 121.551 133.065 121.99 133.194C122.429 133.322 122.836 133.541 123.186 133.835C123.536 134.129 123.821 134.493 124.023 134.903C124.225 135.314 124.339 135.761 124.359 136.218C124.917 135.168 125.81 134.334 126.896 133.85C128.074 133.253 129.383 132.962 130.702 133.004C132.381 132.975 134.03 133.446 135.439 134.357C136.825 135.287 137.935 136.573 138.653 138.079C139.447 139.919 139.823 141.912 139.753 143.915C139.813 145.89 139.438 147.854 138.653 149.667C137.988 151.23 136.868 152.556 135.439 153.473C134.02 154.354 132.372 154.796 130.702 154.742C129.449 154.761 128.206 154.501 127.065 153.981C126.025 153.508 125.144 152.744 124.528 151.781V158.464C124.566 158.987 124.496 159.513 124.321 160.008C124.146 160.502 123.871 160.956 123.513 161.339C123.139 161.687 122.7 161.956 122.22 162.13C121.741 162.305 121.231 162.381 120.722 162.354ZM128.334 149.244C128.864 149.248 129.388 149.137 129.87 148.918C130.352 148.699 130.781 148.377 131.125 147.975C131.969 146.799 132.36 145.357 132.225 143.915C132.373 142.446 131.982 140.973 131.125 139.771C130.482 139.087 129.608 138.665 128.673 138.586C128.137 138.575 127.606 138.675 127.111 138.879C126.616 139.082 126.169 139.386 125.797 139.771C124.979 140.991 124.592 142.45 124.697 143.915C124.598 145.354 124.985 146.783 125.797 147.975C126.151 148.388 126.593 148.717 127.09 148.936C127.588 149.156 128.129 149.261 128.673 149.244H128.334Z" fill="#F2E0EE"/>
<path fill-rule="evenodd" clip-rule="evenodd" d="M66.9173 133C66.5479 133.131 66.2112 133.319 65.9258 133.555C65.5697 133.85 65.3038 134.21 65.1504 134.607C64.9969 135.004 64.9602 135.425 65.0435 135.836C64.9811 136.244 65.0323 136.658 65.1932 137.046C65.354 137.435 65.6203 137.788 65.9715 138.079C66.1919 138.261 66.442 138.416 66.7138 138.539H86.7773C87.0986 138.412 87.3936 138.242 87.65 138.036C88.0126 137.744 88.2878 137.385 88.4538 136.99C88.6199 136.594 88.6721 136.172 88.6064 135.757C88.6064 134.265 87.8999 133.357 86.487 133H66.9173Z" fill="#F2E0EE"/>
<path fill-rule="evenodd" clip-rule="evenodd" d="M66.9984 151.461C66.6134 151.592 66.2624 151.78 65.965 152.016C65.5938 152.311 65.3167 152.672 65.1567 153.068C64.9968 153.465 64.9586 153.886 65.0453 154.297C64.9803 154.705 65.0337 155.119 65.2013 155.508C65.369 155.897 65.6465 156.25 66.0127 156.54C66.2423 156.723 66.503 156.877 66.7864 157H87.6987C88.0337 156.873 88.3411 156.704 88.6083 156.497C88.9863 156.205 89.2732 155.847 89.4462 155.451C89.6193 155.056 89.6737 154.633 89.6052 154.218C89.6052 152.726 88.8689 151.819 87.3962 151.461H66.9984Z" fill="#F2E0EE"/>
<path fill-rule="evenodd" clip-rule="evenodd" d="M65.0029 154.072C65.007 153.923 65.0201 153.775 65.0421 153.629L81.8057 134.303C82.4441 134.059 83.1272 133.931 83.8187 133.927C84.768 133.897 85.694 134.208 86.4111 134.796C86.707 135.059 86.9416 135.378 87.1 135.732C87.2584 136.085 87.337 136.466 87.331 136.85C87.3378 137.399 87.2158 137.937 86.9801 138.427L71.698 156.045C71.4847 156.192 71.2595 156.325 71.024 156.442C70.2589 156.844 69.3898 157.036 68.5152 156.995C68.0568 157.016 67.5985 156.95 67.1675 156.801C66.7366 156.652 66.3418 156.422 66.0065 156.126C65.6767 155.885 65.4133 155.573 65.2386 155.215C65.0639 154.857 64.9831 154.465 65.0029 154.072Z" fill="#F2E0EE"/>
<rect width="4.01064" height="4.81154" transform="matrix(0.734803 -0.678281 0.734803 0.678281 65.5885 152.336)" fill="#F2E0EE"/>
<rect width="4.01064" height="4.81154" transform="matrix(0.734803 -0.678281 0.734803 0.678281 81 137.567)" fill="#F2E0EE"/>
</svg>
